<?xml version="1.0" encoding="UTF-8" standalone="no"?>
<!-- Created with Inkscape (http://www.inkscape.org/) -->

<svg
   width="793.70081"
   height="1122.5197"
   viewBox="0 0 210 296.99999"
   version="1.1"
   id="svg1"
   inkscape:version="1.3 (0e150ed6c4, 2023-07-21)"
   sodipodi:docname="man.svg"
   xmlns:inkscape="http://www.inkscape.org/namespaces/inkscape"
   xmlns:sodipodi="http://sodipodi.sourceforge.net/DTD/sodipodi-0.dtd"
   xmlns="http://www.w3.org/2000/svg"
   xmlns:svg="http://www.w3.org/2000/svg"
   xmlns:rdf="http://www.w3.org/1999/02/22-rdf-syntax-ns#"
   xmlns:cc="http://creativecommons.org/ns#"
   xmlns:dc="http://purl.org/dc/elements/1.1/">
  <title
     id="title1">TIGERFUNK.TK : Guide de l'utilisateur</title>
  <sodipodi:namedview
     id="namedview1"
     pagecolor="#505050"
     bordercolor="#eeeeee"
     borderopacity="1"
     inkscape:showpageshadow="0"
     inkscape:pageopacity="0"
     inkscape:pagecheckerboard="0"
     inkscape:deskcolor="#d1d1d1"
     inkscape:document-units="px"
     showgrid="true"
     inkscape:zoom="1.4317881"
     inkscape:cx="272.73589"
     inkscape:cy="595.75855"
     inkscape:window-width="1920"
     inkscape:window-height="1062"
     inkscape:window-x="0"
     inkscape:window-y="18"
     inkscape:window-maximized="0"
     inkscape:current-layer="layer1"
     showguides="false">
    <inkscape:grid
       id="grid1"
       units="px"
       originx="0"
       originy="0"
       spacingx="0.26458333"
       spacingy="0.26458333"
       empcolor="#bdbdff"
       empopacity="0.25098039"
       color="#9494ff"
       opacity="0.1254902"
       empspacing="5"
       dotted="false"
       gridanglex="30"
       gridanglez="30"
       visible="true" />
    <sodipodi:guide
       position="90.007945,128.8118"
       orientation="64.640641,0"
       id="guide23"
       inkscape:locked="false" />
    <sodipodi:guide
       position="90.007945,111.70897"
       orientation="0,133.53124"
       id="guide24"
       inkscape:locked="false" />
    <sodipodi:guide
       position="125.33809,111.70897"
       orientation="-64.640641,0"
       id="guide25"
       inkscape:locked="false" />
    <sodipodi:guide
       position="125.33809,128.8118"
       orientation="0,-133.53124"
       id="guide26"
       inkscape:locked="false" />
  </sodipodi:namedview>
  <defs
     id="defs1">
    <inkscape:path-effect
       effect="bend_path"
       id="path-effect1"
       is_visible="true"
       lpeversion="1"
       bendpath="m 93.152344,176.76075 12.680986,1.30382 11.01433,-1.30382"
       prop_scale="1"
       scale_y_rel="false"
       vertical="false"
       hide_knot="false"
       bendpath-nodetypes="ccc" />
    <linearGradient
       id="swatch13"
       inkscape:swatch="solid">
      <stop
         style="stop-color:#000000;stop-opacity:1;"
         offset="0"
         id="stop13" />
    </linearGradient>
  </defs>
  <g
     inkscape:label="Calque 1"
     inkscape:groupmode="layer"
     id="layer1">
    <text
       xml:space="preserve"
       style="font-style:normal;font-variant:normal;font-weight:900;font-stretch:normal;font-size:22.5778px;line-height:1.25;font-family:Roboto;-inkscape-font-specification:'Roboto, Heavy';letter-spacing:0px;word-spacing:0px;fill:#000000;fill-opacity:1;stroke:none;stroke-width:0.264583;font-variant-ligatures:normal;font-variant-caps:normal;font-variant-numeric:normal;font-variant-east-asian:normal"
       x="50.270828"
       y="50.270828"
       id="text1"><tspan
         sodipodi:role="line"
         id="tspan1" /></text>
    <g
       id="g2"
       transform="translate(4.6302105,42.333329)">
      <rect
         style="fill:#ffffff;fill-opacity:1;fill-rule:evenodd;stroke:#ffffff;stroke-width:1.05833;stroke-linecap:round;stroke-linejoin:round;stroke-dasharray:none;paint-order:fill markers stroke"
         id="rect2"
         width="147.93346"
         height="26.466669"
         x="2.7624371"
         y="2.6458333" />
      <text
         xml:space="preserve"
         style="font-style:normal;font-variant:normal;font-weight:900;font-stretch:normal;font-size:22.5778px;line-height:1.25;font-family:Roboto;-inkscape-font-specification:'Roboto, Heavy';font-variant-ligatures:normal;font-variant-caps:normal;font-variant-numeric:normal;font-variant-east-asian:normal;letter-spacing:-1.32292px;word-spacing:0px;fill:#800080;fill-opacity:1;stroke:none;stroke-width:0.264583"
         x="5.2916689"
         y="23.816664"
         id="text2"><tspan
           sodipodi:role="line"
           id="tspan2"
           style="font-style:normal;font-variant:normal;font-weight:900;font-stretch:normal;font-size:22.5778px;font-family:Roboto;-inkscape-font-specification:'Roboto, Heavy';font-variant-ligatures:normal;font-variant-caps:normal;font-variant-numeric:normal;font-variant-east-asian:normal;letter-spacing:-1.32292px;fill:#800080;fill-opacity:1;stroke-width:0.264583"
           x="5.2916689"
           y="23.816664">TIGERFUNK.TK</tspan></text>
      <rect
         style="fill:#ffffff;fill-opacity:1;fill-rule:nonzero;stroke:#ffffff;stroke-width:1.05833;stroke-linecap:square;stroke-linejoin:round;stroke-dasharray:none;paint-order:fill markers stroke"
         id="rect6"
         width="59.531242"
         height="22.489584"
         x="7.9374995"
         y="42.333332" />
    </g>
    <path
       id="path27"
       style="fill:#ffffff;fill-opacity:1;stroke:#000000;stroke-width:0.52916666;stroke-linecap:round;stroke-linejoin:round;stroke-dasharray:none;stroke-opacity:1;image-rendering:optimizeQuality"
       d="m 84.005208,69.585411 v -1.5875 c 0,0 1e-5,-1.31765 1.32292,-1.32291 1.26174,-0.005 1.32291,1.32291 1.32291,1.32291 l 1e-5,2.64587 v -1.5875 c 0,0 1e-5,-1.31766 1.32291,-1.32292 1.26175,-0.005 1.32292,1.5875 1.32292,1.5875 v 1.85208 -0.79375 c 0,0 0,-1.31765 1.32291,-1.32291 1.26174,-0.005 1.32292,1.32291 1.32292,1.32291 l -5e-5,4.23334 c -10e-6,1.05833 0,1.05833 -1.5875,2.645826 -1.32291,1.32291 0.26459,2.38125 0.26459,2.38125 h -6.61454 c -0.604,-0.58962 -4.23333,-5.556246 -4.23333,-6.614576 0,-2.11667 1.58745,-3.96875 1.58745,-3.96875 m 5e-5,3.21953 v -7.98203 c 0,0 0.0668,-1.32292 1.32292,-1.32292 1.27485,0 1.32291,1.32292 1.32291,1.32292 v 6.87916"
       sodipodi:nodetypes="ccccccscccscssccscccscc" />
    <g
       id="g6"
       transform="matrix(2.345249,0,0,2.345249,-148.0422,-106.27541)"
       style="stroke:#800080;stroke-opacity:1">
      <path
         id="path4"
         style="fill:#ffffff;fill-opacity:1;fill-rule:nonzero;stroke:#800080;stroke-width:0.529167;stroke-linecap:round;stroke-linejoin:round;stroke-dasharray:none;stroke-opacity:1;paint-order:fill markers stroke"
         d="m 137.58333,64.822916 -3.96875,3.96875 -1.32292,1.322916 h 1.32292 v 5.291667 h 7.9375 v -5.291667 h 1.32292 l -1.32292,-1.322916 z"
         sodipodi:nodetypes="cccccccccc" />
      <path
         style="fill:#ffffff;fill-opacity:1;stroke:#800080;stroke-width:0.529167;stroke-linecap:square;stroke-linejoin:bevel;stroke-dasharray:none;stroke-opacity:1"
         d="M 136.26042,74.991866 V 73.66895 c 0,0 -7.7e-4,-1.277745 1.32292,-1.277745 1.3073,0 1.32291,1.277745 1.32291,1.277745 v 1.322916"
         id="path6"
         sodipodi:nodetypes="ccscc" />
    </g>
    <text
       xml:space="preserve"
       style="font-style:normal;font-variant:normal;font-weight:900;font-stretch:normal;font-size:19.05px;line-height:1.25;font-family:Roboto;-inkscape-font-specification:'Roboto, Heavy';font-variant-ligatures:normal;font-variant-caps:normal;font-variant-numeric:normal;font-variant-east-asian:normal;letter-spacing:-1.32292px;word-spacing:0px;fill:#800080;fill-opacity:1;stroke:none;stroke-width:0.264583"
       x="14.460237"
       y="101.87078"
       id="text6"><tspan
         sodipodi:role="line"
         id="tspan6"
         style="font-style:normal;font-variant:normal;font-weight:900;font-stretch:normal;font-size:19.05px;font-family:Roboto;-inkscape-font-specification:'Roboto, Heavy';font-variant-ligatures:normal;font-variant-caps:normal;font-variant-numeric:normal;font-variant-east-asian:normal;letter-spacing:-1.32292px;stroke-width:0.264583;fill:#800080"
         x="14.460237"
         y="101.87078">500mg</tspan></text>
    <path
       id="path7"
       style="fill:#ffffff;fill-opacity:1;stroke:#000000;stroke-width:0.52916666;stroke-linecap:round;stroke-linejoin:round;stroke-dasharray:none;stroke-opacity:1;image-rendering:optimizeQuality"
       d="m 43.259373,106.36246 v -1.5875 c 0,0 1e-5,-1.31765 1.32292,-1.32291 1.26174,-0.005 1.32291,1.32291 1.32291,1.32291 l 1e-5,2.64587 v -1.5875 c 0,0 10e-6,-1.31766 1.32291,-1.32292 1.26175,-0.005 1.32292,1.5875 1.32292,1.5875 v 1.85208 -0.79375 c 0,0 0,-1.31765 1.32291,-1.32291 1.26174,-0.005 1.32292,1.32291 1.32292,1.32291 l -5e-5,4.23334 c -1e-5,1.05833 0,1.05833 -1.5875,2.64582 -1.32291,1.32291 0.26459,2.38125 0.26459,2.38125 h -6.61454 c -0.604,-0.58962 -4.23333,-5.55624 -4.23333,-6.61457 0,-2.11667 1.58745,-3.96875 1.58745,-3.96875 m 5e-5,3.21953 v -7.98203 c 0,0 0.0668,-1.322925 1.32292,-1.322925 1.27485,0 1.32291,1.322925 1.32291,1.322925 v 6.87916"
       sodipodi:nodetypes="ccccccscccscssccscccscc" />
    <ellipse
       style="fill:#ffffff;fill-opacity:1;fill-rule:nonzero;stroke:#ffffff;stroke-width:1.12602;stroke-linecap:square;stroke-linejoin:round;stroke-dasharray:none;paint-order:fill markers stroke"
       id="path8"
       cx="105"
       cy="137.08691"
       rx="17.107418"
       ry="16.675997" />
    <path
       id="path14"
       style="fill:none;stroke:#ffffff;stroke-width:1.16875;stroke-linecap:round;stroke-linejoin:round;stroke-dasharray:none;paint-order:fill markers stroke"
       d="m 104.9863,157.9154 c -3.2176,0.0132 -5.817648,2.62839 -5.81634,5.846 0.0012,3.21761 2.6033,5.8289 5.8209,5.84145 z m 0.0274,11.68745 h 16.36245 V 157.9154 h -16.36246 m 16.37387,0 0.0708,11.68745 c 3.20867,-0.0451 5.78071,-2.66907 5.76156,-5.87798 -0.019,-3.20958 -2.62269,-5.80329 -5.83232,-5.80947 z"
       sodipodi:nodetypes="cscccccccccc" />
    <path
       id="path16"
       style="fill:none;stroke:#ffffff;stroke-width:1.16875;stroke-linecap:round;stroke-linejoin:round;stroke-dasharray:none;paint-order:fill markers stroke"
       d="m 88.648957,157.9177 c -3.217594,0.0132 -5.817645,2.62838 -5.816337,5.846 0.0012,3.21761 2.603297,5.8289 5.820905,5.84145 z m 0.02739,11.68745 H 105.0388 V 157.9177 H 88.676345 m 16.373865,0 0.0708,11.68745 c 3.20867,-0.0451 5.78071,-2.66908 5.76156,-5.87799 -0.019,-3.20957 -2.62269,-5.80328 -5.83232,-5.80946 z"
       sodipodi:nodetypes="cscccccccccc" />
    <g
       id="g21"
       style="fill:#ffffff;fill-opacity:1;stroke:#ffffff;stroke-width:0.264583;stroke-dasharray:none;stroke-opacity:1"
       transform="matrix(4.4173097,0,0,4.4173097,-187.17293,-555.01767)">
      <g
         id="g16"
         transform="translate(6.9574384,-0.37114498)"
         style="fill:#ffffff;fill-opacity:1;stroke:#ffffff;stroke-width:0.264583;stroke-dasharray:none;stroke-opacity:1">
        <path
           id="circle11"
           style="fill:#ffffff;fill-opacity:1;stroke:#ffffff;stroke-width:0.264583;stroke-linecap:round;stroke-linejoin:round;stroke-dasharray:none;stroke-opacity:1;paint-order:fill markers stroke"
           d="m 52.33042,165.45006 c -0.400243,0.6086 -0.232394,1.42638 0.374711,1.82888 0.607092,0.40252 1.425364,0.23854 1.830475,-0.36683 z m 2.208042,1.45774 2.048071,-3.08646 -2.204615,-1.46291 -2.04807,3.08646 m 2.049499,-3.08861 2.213472,1.44955 c 0.393126,-0.61089 0.220095,-1.4245 -0.387601,-1.82254 -0.607802,-0.39816 -1.422958,-0.23167 -1.825871,0.37299 z"
           sodipodi:nodetypes="cscccccccccc" />
        <path
           id="path15"
           style="fill:#ffffff;fill-opacity:1;stroke:#ffffff;stroke-width:0.264583;stroke-linecap:round;stroke-linejoin:round;stroke-dasharray:none;stroke-opacity:1;paint-order:fill markers stroke"
           d="m 50.27335,168.55009 c -0.400243,0.6086 -0.232394,1.42638 0.374711,1.82888 0.607092,0.40252 1.425364,0.23854 1.830475,-0.36683 z m 2.208042,1.45774 2.048071,-3.08646 -2.204615,-1.46291 -2.04807,3.08646 m 2.049499,-3.08861 2.213472,1.44955 c 0.393126,-0.61089 0.220095,-1.4245 -0.387601,-1.82254 -0.607802,-0.39816 -1.422958,-0.23167 -1.825871,0.37299 z"
           sodipodi:nodetypes="cscccccccccc" />
      </g>
      <g
         id="g18"
         transform="matrix(-1,0,0,1,125.33991,-0.37114)"
         style="fill:#ffffff;fill-opacity:1;stroke:#ffffff;stroke-width:0.264583;stroke-dasharray:none;stroke-opacity:1">
        <path
           id="path17"
           style="fill:#ffffff;fill-opacity:1;stroke:#ffffff;stroke-width:0.264583;stroke-linecap:round;stroke-linejoin:round;stroke-dasharray:none;stroke-opacity:1;paint-order:fill markers stroke"
           d="m 52.33042,165.45006 c -0.400243,0.6086 -0.232394,1.42638 0.374711,1.82888 0.607092,0.40252 1.425364,0.23854 1.830475,-0.36683 z m 2.208042,1.45774 2.048071,-3.08646 -2.204615,-1.46291 -2.04807,3.08646 m 2.049499,-3.08861 2.213472,1.44955 c 0.393126,-0.61089 0.220095,-1.4245 -0.387601,-1.82254 -0.607802,-0.39816 -1.422958,-0.23167 -1.825871,0.37299 z"
           sodipodi:nodetypes="cscccccccccc" />
        <path
           id="path18"
           style="fill:#ffffff;fill-opacity:1;stroke:#ffffff;stroke-width:0.264583;stroke-linecap:round;stroke-linejoin:round;stroke-dasharray:none;stroke-opacity:1;paint-order:fill markers stroke"
           d="m 50.27335,168.55009 c -0.400243,0.6086 -0.232394,1.42638 0.374711,1.82888 0.607092,0.40252 1.425364,0.23854 1.830475,-0.36683 z m 2.208042,1.45774 2.048071,-3.08646 -2.204615,-1.46291 -2.04807,3.08646 m 2.049499,-3.08861 2.213472,1.44955 c 0.393126,-0.61089 0.220095,-1.4245 -0.387601,-1.82254 -0.607802,-0.39816 -1.422958,-0.23167 -1.825871,0.37299 z"
           sodipodi:nodetypes="cscccccccccc" />
      </g>
      <path
         style="fill:#ffffff;fill-opacity:1;stroke:#ffffff;stroke-width:0.296813;stroke-linecap:round;stroke-linejoin:round;stroke-dasharray:none;stroke-opacity:1;paint-order:normal"
         d="m 62.454933,161.41194 -0.790906,11.69585 8.957402,-6.4e-4 -0.784723,-11.69521 z"
         id="path21"
         sodipodi:nodetypes="ccccc" />
    </g>
    <path
       style="fill:#800080;stroke:#800080;stroke-width:0.861574px;stroke-linecap:butt;stroke-linejoin:miter;stroke-opacity:1"
       d="m 82.681495,163.606 23.446675,4.15594 21.19031,-4.15594 v 33.26018 l -22.31849,4.15739 -22.318495,-4.15739 z"
       id="path22" />
    <path
       id="path19"
       style="fill:#ffffff;fill-opacity:1;stroke:#ffffff;stroke-width:1.16875;stroke-linecap:round;stroke-linejoin:round;stroke-dasharray:none;paint-order:fill markers stroke"
       d="m 68.110212,185.7789 c -2.930421,1.32882 -4.232622,4.77896 -2.914709,7.71426 1.317821,2.93535 4.760659,4.25321 7.70165,2.94794 z m 4.807765,10.65279 14.929663,-6.69585 -4.782776,-10.66405 -14.929663,6.69594 m 14.940083,-6.70062 4.84734,10.63507 c 2.909258,-1.35417 4.182269,-4.80095 2.851638,-7.72101 -1.330763,-2.92077 -4.767872,-4.22185 -7.698978,-2.91406 z"
       sodipodi:nodetypes="cscccccccccc" />
    <path
       id="path20"
       style="fill:#ffffff;fill-opacity:1;stroke:#ffffff;stroke-width:1.16875;stroke-linecap:round;stroke-linejoin:round;stroke-dasharray:none;paint-order:fill markers stroke"
       d="m 141.9288,185.75602 c 2.93545,1.31773 4.25075,4.76288 2.944,7.70317 -1.30667,2.94034 -4.74448,4.27123 -7.6904,2.97714 z m -4.76726,10.67103 -14.95499,-6.63913 4.74224,-10.68211 14.95499,6.63917 m -14.96543,-6.64381 -4.80691,10.6534 c -2.91438,-1.34313 -4.20048,-4.78505 -2.88094,-7.71015 1.31966,-2.9258 4.7518,-4.23991 7.68785,-2.94325 z"
       sodipodi:nodetypes="cscccccccccc" />
    <path
       id="text26"
       style="font-weight:900;font-size:8.46667px;line-height:1.25;font-family:Roboto;-inkscape-font-specification:'Roboto, Heavy';letter-spacing:0px;word-spacing:0px;fill:#ffffff;stroke-width:0.264583"
       d="m 95.87101,173.93655 c -0.499199,-0.0528 -0.948827,0.0195 -1.353445,0.21771 -0.401482,0.19562 -0.727473,0.50397 -0.978496,0.9237 -0.250668,0.41687 -0.408885,0.92102 -0.469983,1.51027 -0.01656,0.1724 -0.03312,0.34481 -0.04967,0.51721 -0.05551,0.8594 0.129087,1.552 0.564365,2.08078 0.434832,0.52824 1.060331,0.83373 1.870904,0.91473 0.526829,0.0526 1.017401,0.0246 1.46866,-0.0821 0.45136,-0.10661 0.798673,-0.27182 1.041237,-0.49557 l 0.146874,-2.45886 -2.456533,-0.25306 -0.08057,0.99264 1.015534,0.10365 -0.06721,0.92848 c -0.199657,0.14821 -0.492579,0.20268 -0.877028,0.16386 -0.44913,-0.0453 -0.765276,-0.22843 -0.948543,-0.54851 -0.180388,-0.32281 -0.242761,-0.78182 -0.188426,-1.37975 l 0.03284,-0.36135 c 0.05459,-0.56967 0.195806,-0.99963 0.418684,-1.28597 0.223087,-0.2866 0.510938,-0.41115 0.868631,-0.37368 0.29813,0.0312 0.523334,0.12653 0.675632,0.28611 0.15223,0.15949 0.240883,0.41054 0.266011,0.74996 l 1.386879,0.14399 c -0.02786,-0.68365 -0.237362,-1.21738 -0.621681,-1.59975 -0.381797,-0.38516 -0.934973,-0.61729 -1.664666,-0.69454 2e-6,0 4e-6,0 6e-6,0 z m 3.208388,0.42554 -0.207433,3.94641 c -0.02621,0.65897 0.163629,1.19805 0.577477,1.61992 0.413535,0.42155 0.999768,0.6716 1.753588,0.74693 0.49854,0.0498 0.93384,0.007 1.30193,-0.12673 0.3682,-0.13339 0.65104,-0.35188 0.84927,-0.65567 0.1983,-0.30661 0.2985,-0.68003 0.30347,-1.12396 l 0.0439,-3.91798 -1.41445,-0.14962 -0.0933,3.90865 c -0.009,0.36999 -0.0921,0.62961 -0.25324,0.77823 -0.16101,0.14854 -0.39636,0.20724 -0.70223,0.17636 -0.60724,-0.0613 -0.9047,-0.42019 -0.8953,-1.07696 l 0.15836,-3.97516 z m 5.600662,0.59242 -0.0146,5.98334 1.19085,0.11909 0.296,-0.0341 -0.0632,-5.98275 -0.27874,0.034 z m 2.38758,-0.0336 0.12384,5.98228 2.03812,-0.23469 c 0.53604,-0.0647 1.01396,-0.24235 1.43303,-0.53603 0.42192,-0.29687 0.73641,-0.67515 0.94355,-1.13532 0.20976,-0.46328 0.29372,-0.96847 0.25638,-1.51627 l -0.0188,-0.27553 c -0.0399,-0.54161 -0.1934,-1.01709 -0.45705,-1.42397 -0.26119,-0.41 -0.60482,-0.7077 -1.03049,-0.89573 -0.42603,-0.19088 -0.89558,-0.25622 -1.41098,-0.19344 z m 5.30351,-0.64598 0.45229,5.97976 4.26718,-0.49135 -0.1299,-1.10751 -2.7438,0.31916 -0.12863,-1.42591 2.28964,-0.26987 -0.12113,-1.07069 -2.26512,0.26969 -0.11375,-1.261 2.64979,-0.3193 -0.13067,-1.11334 c -1.34197,0.16345 -2.68393,0.32691 -4.0259,0.49036 z m -3.8579,1.58872 0.47673,-0.0574 c 0.41856,-0.0504 0.74473,0.0566 0.9792,0.32321 0.2342,0.26634 0.3678,0.69098 0.39858,1.26847 l 0.0138,0.25809 c 0.031,0.58086 -0.0568,1.03079 -0.26848,1.3533 -0.21165,0.31946 -0.53035,0.50476 -0.95424,0.55407 l -0.51297,0.0597 z"
       inkscape:path-effect="#path-effect1"
       inkscape:original-d="m 95.71875,173.66602 c -0.51263,0 -0.964105,0.11959 -1.355469,0.35937 -0.388606,0.23702 -0.687022,0.57776 -0.896484,1.02149 -0.209462,0.44097 -0.314453,0.95822 -0.314453,1.55078 l 0.0039,0.51953 c 0.03307,0.8599 0.28457,1.53136 0.755859,2.01367 0.47129,0.48231 1.100434,0.72461 1.888672,0.72461 0.512631,0 0.984115,-0.0769 1.414063,-0.22852 0.429948,-0.15158 0.757226,-0.35156 0.980468,-0.59961 v -2.47265 h -2.458984 v 0.99804 h 1.007813 v 0.9336 c -0.184658,0.16812 -0.466168,0.25195 -0.84375,0.25195 -0.440972,0 -0.763998,-0.15076 -0.970703,-0.45117 -0.203951,-0.30317 -0.306641,-0.75464 -0.306641,-1.35547 v -0.36328 c 0.0028,-0.57327 0.104296,-1.01554 0.302734,-1.32422 0.198438,-0.30868 0.477994,-0.46289 0.841797,-0.46289 0.303168,0 0.53776,0.0715 0.703125,0.21484 0.165367,0.14332 0.272659,0.38447 0.322266,0.72071 h 1.398437 c -0.0689,-0.68076 -0.312347,-1.19145 -0.728515,-1.53321 -0.413412,-0.3445 -0.994488,-0.51757 -1.744141,-0.51757 z m 3.298828,0.0859 v 3.96875 c 0.0083,0.66146 0.222851,1.18216 0.644531,1.5625 0.421681,0.38034 0.999301,0.57227 1.732421,0.57227 0.48507,0 0.90618,-0.0869 1.26172,-0.25781 0.35553,-0.17088 0.62819,-0.41892 0.81836,-0.74414 0.19017,-0.32798 0.28516,-0.71368 0.28516,-1.16016 v -3.94141 h -1.45118 v 3.93164 c 0,0.37207 -0.0761,0.64128 -0.23047,0.80664 -0.15433,0.16537 -0.38318,0.24805 -0.68359,0.24805 -0.59531,0 -0.90143,-0.32957 -0.91797,-0.98828 v -3.99805 z m 5.746092,0 v 6.01953 h 1.44727 v -6.01953 z m 2.45703,0 v 6.01953 h 1.98047 c 0.5209,-0.003 0.99043,-0.1258 1.41211,-0.37109 0.42443,-0.24805 0.75286,-0.58993 0.98438,-1.02539 0.23426,-0.43822 0.35156,-0.93316 0.35156,-1.48438 v -0.27734 c -0.003,-0.5457 -0.12351,-1.03834 -0.36328,-1.47656 -0.23703,-0.44097 -0.56776,-0.77976 -0.99219,-1.01953 -0.42444,-0.24254 -0.90363,-0.36524 -1.43555,-0.36524 z m 5.47266,0 v 6.01953 h 4.14648 v -1.11523 h -2.69531 v -1.43555 h 2.28125 v -1.07812 h -2.28125 v -1.26953 h 2.70313 v -1.1211 z m -4.02148,1.1211 h 0.48632 c 0.4272,0 0.75333,0.1465 0.97657,0.4414 0.22324,0.2949 0.33398,0.73488 0.33398,1.31641 v 0.25976 c 0,0.58429 -0.11074,1.02461 -0.33398,1.32227 -0.22324,0.2949 -0.54282,0.44336 -0.95899,0.44336 h -0.5039 z" />
    <rect
       style="fill:#800080;fill-opacity:1;fill-rule:nonzero;stroke:#800080;stroke-width:0.264583;stroke-linecap:round;stroke-linejoin:round;stroke-dasharray:none;stroke-opacity:1;paint-order:normal"
       id="rect28"
       width="31.75"
       height="26.45833"
       x="148.16667"
       y="121.70832" />
  </g>
  <metadata
     id="metadata1">
    <rdf:RDF>
      <cc:Work
         rdf:about="">
        <dc:title>TIGERFUNK.TK : Guide de l'utilisateur</dc:title>
        <dc:date>2023/10/19</dc:date>
        <dc:creator>
          <cc:Agent>
            <dc:title>Stéphane MEYER</dc:title>
          </cc:Agent>
        </dc:creator>
        <dc:language>fr</dc:language>
      </cc:Work>
    </rdf:RDF>
  </metadata>
</svg>
